# xmcd
#
# Track frame offsets: 
#        150
#        6856
#        19670
#        36875
#        57297
#        76125
#        93519
#        117676
#        139244
#        177497
#        196067
#
# Disc length: 2772 seconds
#
# Revision: 0
# Processed by: cddbd v1.5.2PL0 Copyright (c) Steve Scherf et al.
# Submitted via: ExactAudioCopy v1.0b3
#
DISCID=8f0ad20b
DTITLE=The Muggs - On With The Show
DYEAR=2008
DGENRE=Blues
TTITLE0=Motown Blues
TTITLE1=Slow Curve
TTITLE2=Just Another fool
TTITLE3=All around You
TTITLE4=On With The Show
TTITLE5=Somewhere Down the Line
TTITLE6=Curbside Constellation blues
TTITLE7=Down Below
TTITLE8=Never Know Why
TTITLE9=Get It On
TTITLE10=Motown Blues (Reprise)
EXTD=
EXTT0=
EXTT1=
EXTT2=
EXTT3=
EXTT4=
EXTT5=
EXTT6=
EXTT7=
EXTT8=
EXTT9=
EXTT10=
PLAYORDER=
